<svg width="189" height="55" viewBox="0 0 189 55" fill="none" xmlns="http://www.w3.org/2000/svg">
<path d="M17.9475 41.0749C15.3583 43.2173 12.9457 44.229 9.94468 44.229C4.76638 44.229 0 40.7774 0 35.0642C0 30.0652 3.35412 27.4467 10.1801 25.6018L17.4033 23.7355C17.8846 23.6112 18.2073 23.1507 18.0986 22.6656C17.5579 20.2522 15.8414 17.6524 13.1817 17.5064C13.027 17.498 12.8753 17.4597 12.7288 17.4093C11.2227 16.8907 8.75602 18.1779 7.51186 20.0288C7.18276 20.5184 6.54355 20.7718 6.01591 20.508L2.79806 18.899C2.34336 18.6717 2.12738 18.1362 2.33426 17.6719C4.26717 13.3333 7.95398 12 13.5 12C20.7378 12 25.2442 17.0321 25.2442 24.1735V42.6934C25.2442 43.2457 24.7965 43.6934 24.2442 43.6934H19.2261C18.715 43.6934 18.3006 43.279 18.3006 42.7679V41.2391C18.3006 41.0565 18.0871 40.9573 17.9475 41.0749V41.0749ZM7.179 34.6477C7.179 37.0876 9.35623 38.3969 11.4746 38.3969C13.1811 38.3969 14.5934 37.8018 16.7118 36.314L17.7311 35.6542C18.0132 35.4716 18.1847 35.1597 18.1877 34.8237L18.2299 30.133C18.2358 29.4711 17.6086 28.9862 16.9695 29.1585L12.9457 30.2437C8.94432 31.2554 7.179 32.3267 7.179 34.6477Z" fill="#3EBF8B"/>
<path d="M53.8886 43.6934C53.4117 43.6934 53.0251 43.3068 53.0251 42.8299V42.8299C53.0251 42.0335 51.9798 41.6104 51.3379 42.0818C49.5621 43.3855 47.2761 44.229 44.6692 44.229C37.5491 44.229 31.5469 38.6944 31.5469 28.8154C31.5469 19.115 37.5491 13.5209 44.6104 13.5209C46.9889 13.5209 49.0419 14.0596 50.7274 15.0521C51.4911 15.5017 52.6132 15.0014 52.6132 14.1152V1.96393C52.6132 1.41164 53.0609 0.963928 53.6132 0.963928H58.7922C59.3445 0.963928 59.7922 1.41164 59.7922 1.96393V42.6934C59.7922 43.2457 59.3445 43.6934 58.7922 43.6934H53.8886ZM38.8436 28.8154C38.8436 34.7071 41.9624 37.6828 45.7873 37.6828C49.3767 37.6828 52.5543 35.2427 52.6132 30.4818V27.1491C52.5543 22.6262 49.5533 20.0672 45.7873 20.0672C41.9624 20.0672 38.8436 23.0428 38.8436 28.8154Z" fill="#3EBF8B"/>
<path d="M91.768 14.2351C92.4635 14.2351 92.9466 14.9273 92.7067 15.5801L82.6144 43.0384C82.4698 43.4319 82.095 43.6934 81.6758 43.6934H76.1867C75.7675 43.6934 75.3928 43.4319 75.2481 43.0384L65.1559 15.5801C64.916 14.9273 65.3991 14.2351 66.0945 14.2351H71.1294C71.5551 14.2351 71.9342 14.5047 72.074 14.9068L78.1299 32.3348C78.4416 33.2316 79.7105 33.23 80.0199 32.3324L86.025 14.9092C86.1641 14.5058 86.5437 14.2351 86.9704 14.2351H91.768Z" fill="#383838"/>
<path d="M101.67 9.59314C99.2578 9.59314 97.3748 7.68877 97.3748 5.24879C97.3748 2.8088 99.2578 0.963928 101.67 0.963928C104.083 0.963928 106.025 2.8088 106.025 5.24879C106.025 7.68877 104.083 9.59314 101.67 9.59314ZM99.0809 43.6934C98.5286 43.6934 98.0809 43.2457 98.0809 42.6934V15.2351C98.0809 14.6828 98.5286 14.2351 99.0809 14.2351H104.26C104.812 14.2351 105.26 14.6828 105.26 15.2351V42.6934C105.26 43.2457 104.812 43.6934 104.26 43.6934H99.0809Z" fill="#383838"/>
<path d="M129.123 44.229C126.777 44.229 124.718 43.6174 123.048 42.5774C122.283 42.1011 121.12 42.6022 121.12 43.5033V54.0007C121.12 54.553 120.673 55.0007 120.12 55.0007H114.941C114.389 55.0007 113.941 54.553 113.941 54.0007V15.2351C113.941 14.6828 114.389 14.2351 114.941 14.2351H119.83C120.282 14.2351 120.65 14.6021 120.65 15.0549V15.0549C120.65 15.8229 121.674 16.2217 122.282 15.7518C124.027 14.4013 126.32 13.5209 129.064 13.5209C136.243 13.5209 142.187 19.115 142.187 28.8749C142.187 38.5754 136.067 44.229 129.123 44.229ZM121.12 30.5413C121.179 35.0642 124.239 37.6828 127.946 37.6828C131.771 37.6828 134.89 34.6476 134.89 28.8749C134.89 23.1023 131.771 20.0672 127.946 20.0672C124.357 20.0672 121.179 22.5667 121.12 27.1491V30.5413Z" fill="#383838"/>
<path d="M173.9 37.102C174.324 37.3974 174.456 37.9691 174.169 38.3981C171.761 42.0011 167.484 44.2886 161.819 44.2886C153.816 44.2886 146.99 38.7539 146.99 28.7559C146.99 19.234 153.522 13.4614 161.289 13.4614C165.232 13.4614 168.409 14.7111 170.881 17.2701C173.411 19.8291 174.706 23.2213 174.882 27.5062C174.914 28.304 174.945 28.9307 174.968 29.423C174.993 29.9747 174.552 30.4223 174 30.4223H155.217C154.647 30.4223 154.186 30.9015 154.269 31.4663C154.906 35.8407 158.18 38.4564 162.113 38.4564C164.878 38.4564 167.411 37.1936 169.099 35.0411C169.454 34.5886 170.101 34.4491 170.573 34.7783L173.9 37.102ZM161.113 19.234C158.057 19.234 155.149 21.0117 154.477 24.4321C154.366 24.9961 154.83 25.4828 155.405 25.4828H166.632C167.212 25.4828 167.676 24.9889 167.567 24.4201C166.886 20.872 164.122 19.234 161.113 19.234Z" fill="#383838"/>
<path d="M179.704 39.9442C179.704 42.3842 181.587 44.2886 184 44.2886C186.413 44.2886 188.354 42.3842 188.354 39.9442C188.354 37.5042 186.413 35.6594 184 35.6594C181.587 35.6594 179.704 37.5042 179.704 39.9442Z" fill="#3EBF8B"/>
</svg>
