<svg width="207" height="242" viewBox="0 0 207 242" fill="none" xmlns="http://www.w3.org/2000/svg">
<path d="M37.5 195H35.5H33.5H29.5H21.2388H5L54.5 48H57H59.5H64.5H75H96L144.5 194H112L75.3551 81.2841L37.5 195ZM35.6534 136.327H113.494V160.332H35.6534V136.327Z" fill="url(#paint0_linear_8_12)"/>
<path d="M96 48L132.256 157L132.756 158.5L168 48H170H172H176.5H185H193.5H198H200H202L152 195H147H142H132.256H121.5H116.5H112L88.256 122L76.5 85L65.5 48H67H69H72.5H81H88.5H92.5H94H96Z" fill="url(#paint1_linear_8_12)"/>
<defs>
<linearGradient id="paint0_linear_8_12" x1="-163" y1="-195.545" x2="4.99999" y2="207.454" gradientUnits="userSpaceOnUse">
<stop stop-color="#3EFF8B"/>
<stop offset="1" stop-color="#3EBF8B"/>
</linearGradient>
<linearGradient id="paint1_linear_8_12" x1="312" y1="-77" x2="-14" y2="311.5" gradientUnits="userSpaceOnUse">
<stop stop-color="#00FF66"/>
<stop offset="0.59966" stop-color="#2CAA77"/>
</linearGradient>
</defs>
</svg>
